<svg width="93" height="22" viewBox="0 0 93 22" fill="none" xmlns="http://www.w3.org/2000/svg">
<path d="M11.5835 20.2173C8.1777 20.2173 5.84383 18.3171 4.74474 15.3921C4.17243 13.8653 3.89166 12.2446 3.91703 10.6143C3.91703 5.70755 6.10843 2.30745 10.9661 2.30745C14.2363 2.30745 16.2445 3.73264 17.3978 7.12595H18.7954L18.6055 2.44318C16.6515 1.18087 14.2091 0.536143 11.2307 0.536143C7.05147 0.536143 3.48961 2.41604 1.50175 5.78899C0.478485 7.5783 -0.0397525 9.61202 0.00237866 11.673C0.00237866 15.426 1.76635 18.7447 5.09075 20.5974C6.91222 21.5711 8.95597 22.0529 11.0204 21.9954C14.2634 21.9954 16.8347 21.3779 19.1143 20.2988L19.7046 15.1274H18.2798C17.425 17.4891 16.4073 18.9075 14.718 19.6608C13.8902 20.0341 12.8454 20.2241 11.5835 20.2241V20.2173ZM26.272 2.30066L26.4076 0H25.4443L21.1497 1.28946V1.98169L23.0493 2.86395V19.0093C23.0493 20.1088 22.493 20.3531 21.014 20.5363V21.7172H28.3073V20.5363C26.8351 20.3531 26.272 20.1088 26.272 19.0093V2.30745V2.30066ZM55.2757 21.9819H55.8388L60.7711 21.0453V19.8373L60.0723 19.7898C58.919 19.6812 58.6272 19.4369 58.6272 18.5003V9.89489L58.7629 7.13274H57.9827L53.3218 7.80462V8.9787L53.7763 9.06014C55.0315 9.25017 55.4046 9.60307 55.4046 10.4853V18.1542C54.2105 19.0908 53.0572 19.6812 51.6935 19.6812C50.1602 19.6812 49.2239 18.9007 49.2239 17.1023V9.89489L49.3596 7.13274H48.5523L43.8913 7.80462V8.9787L44.373 9.06014C45.6349 9.25017 46.0081 9.60307 46.0081 10.4853V17.5638C46.0081 20.5635 47.6974 21.9887 50.4044 21.9887C52.4669 21.9887 54.1563 20.8892 55.4182 19.3554L55.2825 21.9887L55.2757 21.9819ZM41.7067 12.4399C41.7067 8.60544 39.6713 7.13274 36.0077 7.13274C32.7579 7.13274 30.3969 8.4697 30.3969 10.6957C30.3969 11.3744 30.6412 11.8766 31.1229 12.2227L33.5924 11.9037C33.4839 11.1572 33.4296 10.6957 33.4296 10.5125C33.4296 9.25017 34.1013 8.61222 35.465 8.61222C37.48 8.61222 38.4976 10.0306 38.4976 12.3041V13.0575L33.4025 14.5845C31.7131 15.0392 30.7497 15.4464 30.1052 16.3829C29.7612 16.9551 29.5937 17.6161 29.6235 18.2832C29.6235 20.4549 31.1229 21.9887 33.6738 21.9887C35.5192 21.9887 37.1543 21.1539 38.579 19.5726C39.0879 21.1539 39.8681 21.9887 41.2589 21.9887C42.3851 21.9887 43.4028 21.5272 44.3119 20.6449L44.0406 19.7084C43.6403 19.8169 43.2671 19.8644 42.8668 19.8644C42.0866 19.8644 41.7135 19.2536 41.7135 18.0456V12.4399H41.7067ZM35.1936 19.8169C33.8028 19.8169 32.9479 19.0093 32.9479 17.5909C32.9479 16.6204 33.4025 16.0571 34.3727 15.7382L38.4976 14.4216V18.3917C37.1814 19.3826 36.408 19.8169 35.2004 19.8169H35.1936ZM78.1395 21.0453V19.8373L77.4474 19.7898C76.2941 19.6812 75.9956 19.4369 75.9956 18.5003V2.30745L76.1312 0H75.1679L70.88 1.28946V1.98169L72.7797 2.86395V8.17788C71.7101 7.44472 70.4319 7.07802 69.1364 7.13274C64.8758 7.13274 61.5514 10.3767 61.5514 15.2292C61.5514 19.2265 63.9327 21.9887 67.8745 21.9887C69.9099 21.9887 71.6806 20.991 72.7797 19.464L72.644 21.9887H73.2071L78.1395 21.0453ZM69.2178 8.74117C71.2532 8.74117 72.7797 9.92204 72.7797 12.0938V18.2017C72.3161 18.6641 71.7642 19.0285 71.157 19.2734C70.5498 19.5182 69.8996 19.6384 69.245 19.6269C66.3209 19.6269 64.8486 17.3195 64.8486 14.2383C64.8486 10.7772 66.5312 8.74117 69.2178 8.74117ZM88.5672 11.7951C88.1941 10.0035 87.095 8.9787 85.5685 8.9787C83.2889 8.9787 81.7013 10.6957 81.7013 13.166C81.7013 16.8105 83.6349 19.1722 86.749 19.1722C87.7687 19.1607 88.7676 18.8821 89.6461 18.3641C90.5246 17.8461 91.2521 17.1069 91.7559 16.22L92.6718 16.4643C92.2648 19.6269 89.4017 21.9887 85.8874 21.9887C81.7624 21.9887 78.9197 18.9347 78.9197 14.5912C78.9197 10.2139 81.9998 7.12595 86.1316 7.12595C89.2118 7.12595 91.3828 8.9787 92.0816 12.2023L81.335 15.4939V14.0483L88.5672 11.7951Z" fill="#3D3D3A"/>
</svg>
